<svg xmlns="http://www.w3.org/2000/svg" viewBox="0 0 64 64">
  <defs>
    <linearGradient id="bg" x1="0" y1="0" x2="1" y2="1">
      <stop offset="0" stop-color="#F7DCEF"/>
      <stop offset="1" stop-color="#CBB6F2"/>
    </linearGradient>
  </defs>
  <rect x="2" y="2" width="60" height="60" rx="17" fill="url(#bg)"/>
  <g stroke="#C98FB8" stroke-width="1.6" stroke-linejoin="round">
    <path d="M24 30C20 22 21 9 26 8c4 0 4 13 3 22Z" fill="#fff"/>
    <path d="M40 30c4-8 3-21-2-22-4 0-4 13-3 22Z" fill="#fff"/>
    <circle cx="32" cy="40" r="15" fill="#fff"/>
  </g>
  <path d="M25.6 26.5C23.7 21 24.2 13.5 26.3 13c1.6.5 1.6 8 1.1 13.5Z" fill="#FFC6DE"/>
  <path d="M38.4 26.5C40.3 21 39.8 13.5 37.7 13c-1.6.5-1.6 8-1.1 13.5Z" fill="#FFC6DE"/>
  <circle cx="24" cy="43" r="3.1" fill="#FFC2D4" opacity="0.75"/>
  <circle cx="40" cy="43" r="3.1" fill="#FFC2D4" opacity="0.75"/>
  <circle cx="27" cy="39" r="2.4" fill="#6B4A5A"/>
  <circle cx="37" cy="39" r="2.4" fill="#6B4A5A"/>
  <circle cx="26.3" cy="38.2" r="0.8" fill="#fff"/>
  <circle cx="36.3" cy="38.2" r="0.8" fill="#fff"/>
  <path d="M32 43.4l-2 1.8h4z" fill="#F0899D"/>
  <path d="M32 45.2v1.5" stroke="#C98FB8" stroke-width="1.2" stroke-linecap="round"/>
  <path d="M32 46.7q-1.9 1.6-3.3 0M32 46.7q1.9 1.6 3.3 0"
        fill="none" stroke="#C98FB8" stroke-width="1.2" stroke-linecap="round"/>
  <path d="M50 15l1.3 3.4 3.4 1.3-3.4 1.3L50 24.7l-1.3-3.4-3.4-1.3 3.4-1.3z"
        fill="#fff" opacity="0.9"/>
</svg>
